<svg preserveAspectRatio="none" overflow="visible" style="display: block;" width="16" height="16" viewBox="0 0 16 16" fill="none" xmlns="http://www.w3.org/2000/svg">
<g id="Dakr Mode Toggle">
<path id="Vector (Stroke)" d="M7.72073 1.34218C8.12356 1.35277 8.42499 1.60501 8.56513 1.89817C8.7086 2.19845 8.70805 2.57935 8.50784 2.89882L8.50718 2.89817C8.1079 3.53727 7.93754 4.29331 8.02281 5.04205C8.10814 5.79091 8.44493 6.48892 8.97789 7.02187C9.51086 7.55475 10.2089 7.89102 10.9577 7.9763C11.7066 8.06154 12.4624 7.89074 13.1016 7.49127L13.2233 7.42552C13.5136 7.29372 13.8377 7.30784 14.1009 7.43333C14.4146 7.58289 14.6797 7.91683 14.6556 8.36041C14.5861 9.64627 14.1455 10.8846 13.3874 11.9255C12.6292 12.9665 11.5855 13.7657 10.3828 14.2263C9.18019 14.6868 7.86963 14.7894 6.61005 14.5212C5.35048 14.253 4.19585 13.6252 3.28518 12.7146C2.37448 11.804 1.7469 10.6493 1.47854 9.38971C1.2102 8.13009 1.31233 6.81967 1.77281 5.61692C2.23332 4.41416 3.03262 3.3707 4.07359 2.61236C5.11455 1.85406 6.35269 1.41304 7.6387 1.34348L7.72073 1.34218ZM7.08075 2.74713C6.2804 2.88698 5.51931 3.20816 4.8581 3.68984C4.02547 4.29646 3.38664 5.13143 3.01825 6.09348C2.64986 7.05567 2.56792 8.10403 2.78258 9.11171C2.99725 10.1194 3.4993 11.0434 4.22789 11.7719C4.95647 12.5004 5.88032 13.0026 6.88804 13.2172C7.89576 13.4317 8.94412 13.3494 9.90627 12.9809C10.8684 12.6123 11.7034 11.9732 12.3099 11.1404C12.7914 10.4793 13.1115 9.71849 13.2513 8.91835C12.489 9.26184 11.6451 9.39664 10.8067 9.30117C9.75816 9.18176 8.78073 8.71078 8.03453 7.96458C7.28839 7.21839 6.81734 6.2409 6.69794 5.19244C6.6025 4.3539 6.73709 3.50951 7.08075 2.74713Z" fill="#1C1C1C"/>
</g>
</svg>
